<svg xmlns="http://www.w3.org/2000/svg" width="72.462" height="71.163" viewBox="0 0 72.462 71.163"><defs><style>.a{fill:#ffce03;}</style></defs><path class="a" d="M526.2,691.612c-.125.125-.222.031-.4.031s-.179-.143-.357-.143-.179.056-.357.056-.179-.043-.357-.043-.179.053-.357.053-.179.068-.357.068-.179-.111-.357-.111-.178.035-.357.035-.179-.019-.357-.019-.179.02-.357.02-.178-.022-.357-.022-.179-.02-.357-.02-.179.017-.357.017-.178-.031-.357-.031-.179.105-.357.105-.179-.031-.357-.031-.179-.077-.357-.077-.179.128-.358.128-.179-.112-.357-.112-.179.106-.357.106-.179-.084-.357-.084-.179.093-.357.093-.179-.088-.357-.088-.179-.007-.357-.007-.179-.018-.357-.018-.179.1-.357.1-.179-.069-.358-.069-.179-.012-.358-.012-.179.088-.357.088-.179-.04-.358-.04-.179-.054-.358-.054-.179.1-.358.1-.179-.06-.358-.06-.179.057-.358.057-.179-.083-.358-.083-.18-.032-.359-.032-.179.036-.359.036-.179-.011-.359-.011-.179-.011-.359-.011-.18.059-.359.059-.18.024-.359.024-.18,0-.359,0-.18.03-.36.03h-.36c-.18,0-.18-.062-.36-.062s-.18-.046-.36-.046-.18.093-.36.093-.18.015-.36.015-.18-.125-.36-.125-.18-.016-.36-.016-.18.005-.359.005-.18.118-.359.118-.18.018-.359.018-.18-.12-.359-.12h-.359c-.18,0-.18.087-.359.087s-.18-.058-.359-.058-.179-.016-.359-.016-.179-.013-.358-.013-.179.088-.359.088-.179-.006-.358-.006-.179-.03-.358-.03-.179-.024-.358-.024-.179-.038-.358-.038-.179.009-.358.009-.179.041-.358.041-.179-.006-.358-.006-.179.029-.358.029-.18-.083-.359-.083-.179.028-.358.028-.179.083-.358.083-.179-.08-.359-.08l-.358,0c-.179,0-.179.107-.359.107s-.179-.1-.359-.1-.179.066-.359.066-.179-.082-.359-.082-.18-.02-.359-.02-.18.128-.359.128-.18.01-.36.01-.18-.015-.359-.015-.18-.065-.36-.065-.18.072-.36.072-.18-.085-.36-.085-.18.016-.36.016-.18.028-.36.028-.181-.031-.361-.031-.18.044-.36.044-.18-.058-.36-.058-.18.083-.36.083-.18-.116-.36-.116-.18.012-.36.012-.18.007-.359.007-.18-.009-.359-.009-.18.049-.36.049-.18-.052-.359-.052-.179.063-.359.063-.18.043-.359.043-.18-.031-.359-.031-.18-.08-.359-.08-.18.017-.359.017-.18.056-.359.056-.18-.059-.359-.059-.18.049-.359.049-.18-.064-.36-.064-.18.123-.359.123l-.36,0c-.18,0-.18-.1-.36-.1s-.18.088-.36.088-.18-.033-.361-.033-.18.05-.36.05-.18-.042-.36-.042-.181.013-.361.013-.181.022-.361.022-.18-.093-.36-.093-.18.042-.36.042l-.36,0c-.18,0-.18.065-.36.065s-.18-.125-.36-.125-.18.027-.36.027-.18.07-.36.07-.18-.027-.36-.027-.18.024-.359.024-.18-.049-.36-.049-.18.031-.36.031-.18.047-.36.047-.18,0-.36,0-.18-.053-.36-.053-.18-.072-.36-.072-.181.055-.361.055-.181-.055-.361-.055-.181.065-.361.065-.181.047-.361.047h-.36c-.18,0-.18-.1-.36-.1s-.18.051-.36.051-.179-.021-.358-.021-.179.015-.358.015-.18-.016-.359-.016-.179,0-.359,0-.18-.028-.359-.028-.18.038-.36.038-.18-.022-.36-.022-.181.064-.361.064-.181,0-.361,0-.18-.1-.361-.1-.18.046-.36.046-.18.068-.36.068-.18-.109-.359-.109-.18.021-.359.021-.18.05-.359.05-.18-.037-.359-.037-.179-.048-.359-.048-.179.02-.359.02-.18.058-.359.058-.18,0-.359,0-.18-.054-.36-.054-.18.07-.36.07-.18-.071-.36-.071-.181.043-.361.043l-.362,0c-.181,0-.181-.02-.361-.02s-.181.009-.361.009-.18.061-.361.061l-.36,0c-.18,0-.18-.012-.36-.012s-.18,0-.36,0-.18.026-.36.026-.18-.03-.36-.03-.181-.046-.361-.046-.181.084-.361.084-.181-.073-.362-.073-.181-.042-.362-.042-.18.081-.361.081-.181.007-.361.007-.181,0-.361,0-.181-.045-.361-.045-.181.007-.362.007-.181-.021-.362-.021-.181.059-.362.059-.181-.108-.361-.108-.181.126-.362.126-.18-.074-.359-.074-.18-.021-.36-.021-.18.08-.36.08-.181-.091-.362-.091-.181.058-.363.058-.181.025-.362.025-.181-.089-.361-.089-.181.045-.362.045-.182-.071-.363-.071-.181.087-.363.087-.181-.084-.362-.084-.182.067-.364.067-.182-.065-.363-.065-.182,0-.363,0-.181.132-.362.132-.182-.087-.364-.087-.182-.05-.365-.05-.183.13-.366.13-.19.02-.321-.106,0-.13,0-.305-.071-.175-.071-.351.007-.176.007-.351.026-.175.026-.35-.037-.176-.037-.351.079-.176.079-.351-.092-.175-.092-.351.116-.175.116-.35-.115-.175-.115-.351.091-.175.091-.351.012-.175.012-.35-.037-.176-.037-.351-.078-.175-.078-.351.057-.175.057-.35.036-.175.036-.35-.046-.176-.046-.351.03-.175.03-.35-.079-.176-.079-.351.067-.175.067-.35-.068-.175-.068-.351.134-.176.134-.351-.07-.175-.07-.351.021-.176.021-.351-.04-.176-.04-.351-.036-.175-.036-.351.083-.175.083-.351-.039-.176-.039-.352.041-.175.041-.351-.012-.176-.012-.351-.034-.175-.034-.351.015-.175.015-.351.06-.176.06-.351-.063-.176-.063-.352.016-.176.016-.352,0-.176,0-.352-.08-.176-.08-.352.1-.176.1-.352-.081-.176-.081-.352.038-.176.038-.352-.067-.176-.067-.353.114-.176.114-.353-.028-.177-.028-.353-.035-.177-.035-.353-.046-.177-.046-.354.082-.177.082-.354-.089-.176-.089-.353.137-.177.137-.353-.009-.177-.009-.353,0-.176,0-.353,0-.176,0-.353.007-.176.007-.353-.095-.176-.095-.353.071-.176.071-.352-.108-.176-.108-.353.026-.176.026-.352.028-.176.028-.352.048-.177.048-.353.009-.176.009-.352-.079-.176-.079-.352,0-.176,0-.353.008-.176.008-.352.067-.176.067-.352,0-.176,0-.352-.1-.176-.1-.352.032-.176.032-.352,0-.176,0-.352.069-.176.069-.352-.017-.176-.017-.352-.014-.176-.014-.352.068-.176.068-.352-.046-.176-.046-.352-.017-.176-.017-.352.061-.176.061-.352-.058-.176-.058-.352.015-.176.015-.352-.066-.176-.066-.352.1-.177.1-.352-.026-.176-.026-.353.029-.176.029-.352-.115-.177-.115-.353.008-.177.008-.353,0-.176,0-.353.069-.176.069-.353.054-.177.054-.353-.09-.177-.09-.354.073-.177.073-.354-.084-.177-.084-.354-.039-.177-.039-.354.062-.176.062-.353-.017-.177-.017-.353.062-.177.062-.353-.03-.177-.03-.353-.057-.177-.057-.353.1-.177.1-.353-.066-.177-.066-.353.041-.177.041-.353.011-.176.011-.352.017-.176.017-.353,0-.176,0-.353-.1-.177-.1-.353.1-.177.1-.353-.095-.176-.095-.352.062-.176.062-.353.023-.176.023-.353-.054-.177-.054-.353,0-.176,0-.353.02-.176.02-.353-.073-.176-.073-.353.111-.176.111-.353,0-.177,0-.354-.047-.177-.047-.354-.041-.177-.041-.354-.005-.177-.005-.354.074-.177.074-.354.023-.177.023-.354-.007-.177-.007-.354-.112-.177-.112-.353.012-.177.012-.354.069-.176.069-.353.052-.177.052-.354-.027-.176-.027-.353.009-.176.009-.353-.083-.177-.083-.353.066-.177.066-.353-.02-.177-.02-.354-.01-.177-.01-.353.042-.177.042-.353-.014-.177-.014-.354.016-.177.016-.354-.065-.178-.065-.354-.021-.177-.021-.354.107-.177.107-.354-.013-.177-.013-.354.021-.177.021-.354-.034-.177-.034-.354-.021-.177-.021-.354-.064-.176-.064-.351v-.352c0-.176.08-.176.08-.352s-.03-.176-.03-.352.054-.176.054-.353-.085-.177-.085-.353.1-.177.1-.354-.044-.177-.044-.354,0-.177,0-.354-.05-.177-.05-.354.03-.176.03-.354-.045-.177-.045-.353.038-.176.038-.353.01-.177.01-.353.059-.176.059-.352-.141-.177-.141-.353.143-.176.143-.352-.036-.177-.036-.353.007-.176.007-.353-.041-.176-.041-.353-.051-.177-.051-.353.107-.177.107-.353-.116-.177-.116-.354.013-.177.013-.354-.016-.177-.016-.355.079-.177.079-.355v-.355c0-.177.032-.177.032-.354s.021-.177.021-.354-.018-.177-.018-.354-.039-.177-.039-.354-.056-.177-.056-.354-.01-.177-.01-.354-.01-.177-.01-.355.091-.177.091-.355-.027-.178-.027-.356-.044-.178-.044-.355.11-.177.11-.354,0-.177,0-.355-.062-.177-.062-.354.013-.177.013-.355-.037-.178-.037-.355.047-.178.047-.356.039-.177.039-.355-.114-.177-.114-.355.09-.178.09-.355.006-.176.006-.353.009-.177.009-.353-.018-.177-.018-.354-.111-.177-.111-.355.049-.178.049-.356.092-.178.092-.355-.075-.177-.075-.355-.041-.177-.041-.355.01-.178.01-.357-.031-.178-.031-.356.093-.178.093-.356.049-.179.049-.357-.012-.178-.012-.357.006-.178.006-.357-.073-.178-.073-.356-.034-.179-.034-.358-.013-.179-.013-.358.03-.179.03-.359-.112-.24.016-.369.188.012.367.012.179.041.357.041.178.013.357.013.179-.062.357-.062.179-.051.357-.051.179.026.357.026.178-.017.357-.017.179.1.357.1.178-.127.357-.127.179.121.357.121.179-.082.357-.082.179.1.357.1.178-.008.357-.008.179-.029.357-.029.179-.048.357-.048.179.036.357.036.179,0,.357,0,.178.005.357.005.179.026.357.026.179-.073.357-.073.179-.034.357-.034.179.02.357.02.179.016.357.016.179.019.357.019.179.061.357.061.179-.035.358-.035.179-.065.357-.065.179-.029.358-.029.179.026.358.026.179.077.358.077.179-.079.358-.079h.358l.358,0c.179,0,.179.016.358.016s.179.037.358.037.179.06.358.06.18-.138.359-.138.18.052.359.052.18.04.359.04.179-.005.359-.005.18.046.359.046.18-.045.36-.045.18.024.359.024.18-.047.36-.047.18.077.36.077.18-.042.36-.042.18-.1.36-.1.18.052.359.052.18.069.36.069.18-.07.359-.07.18.093.359.093.18-.083.359-.083.18-.033.359-.033.18.054.359.054.179.038.359.038.179-.02.359-.02.179-.095.359-.095.179.044.358.044.179.036.359.036.179-.084.358-.084.179.08.358.08.179.059.358.059.18-.086.359-.086.179.041.358.041.179.036.358.036.179-.109.358-.109.179.011.358.011.179.04.358.04.179-.01.358-.01.179.042.358.042.179-.071.359-.071.179.1.358.1.179-.01.359-.01.179-.073.358-.073.18.069.359.069.18-.009.359-.009.18-.024.359-.024.179-.082.359-.082.18.09.359.09.18.018.359.018.18-.091.359-.091.18.116.36.116.18-.1.36-.1.18.1.36.1.18-.029.36-.029.18-.1.36-.1.18.085.36.085.18-.015.36-.015.18-.023.36-.023.18-.01.36-.01.18-.042.36-.042.18.059.359.059.18.069.36.069.18.006.359.006.18-.12.359-.12.18.025.359.025.18.078.359.078.18-.067.359-.067.18.066.359.066.18-.023.359-.023.18-.087.359-.087.18.05.359.05.18.08.359.08.18-.116.359-.116.18.11.359.11.18-.081.359-.081.18.08.36.08.18-.031.36-.031.18-.067.36-.067.18.039.36.039.18.027.36.027.18.015.361.015.18-.072.361-.072.18.066.36.066.18-.054.36-.054.18.023.36.023.18,0,.36,0,.18.033.36.033.18-.065.36-.065.18-.01.36-.01.18.1.36.1.18-.049.36-.049.18-.043.36-.043.18.056.36.056.18-.05.36-.05.18.078.36.078l.36,0c.18,0,.18-.071.36-.071s.18-.039.36-.039.18.057.361.057.18.057.361.057.18-.084.361-.084.18-.041.36-.041.18.077.361.077.18-.094.36-.094.18.085.36.085.179-.052.358-.052.179.057.358.057.179-.049.358-.049.18.032.359.032.18.062.36.062.18-.132.36-.132.18.128.36.128.181-.081.361-.081.181-.033.361-.033.18.108.36.108.18-.116.36-.116.18.083.359.083.18-.034.36-.034.18-.021.359-.021.18-.034.359-.034.179.044.359.044.18-.016.359-.016.18.023.359.023.179.012.359.012.18-.051.359-.051.18-.008.36-.008.18.088.36.088.18.042.36.042.18-.027.361-.027.181-.025.361-.025.181-.024.362-.024.181.005.361.005.181,0,.361,0,.18.035.36.035.18-.078.361-.078.18.022.36.022.18.062.36.062.18-.054.361-.054.18-.036.361-.036.181.041.362.041.181-.029.362-.029.181.053.362.053.181-.075.361-.075.181.09.361.09.181,0,.361,0,.181.031.361.031.181-.071.362-.071.181-.038.362-.038.181.018.362.018.181.064.362.064.181-.047.361-.047.18-.008.359-.008.18-.01.359-.01.18.068.36.068.181-.047.362-.047.182-.027.363-.027.181.015.362.015.181.045.361.045.181-.06.362-.06.182.074.363.074.182.024.363.024.181-.015.363-.015.182-.063.364-.063.182.1.363.1.181,0,.363,0,.181-.081.362-.081.182.063.364.063.183-.12.365-.12h.366c.183,0,.2-.018.327.108s.036.136.036.312.012.175.012.35.035.175.035.351-.06.175-.06.351.063.175.063.35-.069.176-.069.351-.011.175-.011.35,0,.175,0,.351-.042.175-.042.351.142.175.142.35-.107.175-.107.35.06.176.06.351.037.175.037.35.011.176.011.351-.064.175-.064.351.057.175.057.35-.018.176-.018.351,0,.175,0,.35-.042.176-.042.351.029.175.029.35-.072.176-.072.351.106.175.106.351-.042.176-.042.351-.03.176-.03.351.016.176.016.351.053.176.053.351-.117.175-.117.351,0,.176,0,.351.107.175.107.351.021.175.021.351-.031.176-.031.351-.079.176-.079.352.034.176.034.352-.04.176-.04.352.009.176.009.352.048.176.048.352-.026.177-.026.353.057.176.057.352-.12.176-.12.352.091.176.091.353-.022.176-.022.353-.014.176-.014.353.025.177.025.353.01.177.01.353.035.177.035.354-.1.177-.1.353,0,.177,0,.354.048.176.048.353,0,.177,0,.353.007.177.007.353-.048.176-.048.353.049.177.049.353.02.176.02.352-.059.176-.059.353.068.176.068.352-.009.176-.009.352.04.176.04.352-.078.176-.078.352-.005.176-.005.352.064.176.064.352-.08.176-.08.352.042.176.042.352-.081.176-.081.352.138.176.138.352-.068.176-.068.352-.017.176-.017.352.03.176.03.352-.07.176-.07.352.05.176.05.352-.058.176-.058.352.024.176.024.352.024.176.024.352.023.176.023.352.006.176.006.352.061.176.061.352-.037.176-.037.352-.006.176-.006.352-.048.176-.048.353.091.176.091.353-.015.177-.015.353-.071.176-.071.353.007.177.007.353,0,.177,0,.353-.035.177-.035.354,0,.177,0,.354.046.177.046.354.011.177.011.354,0,.177,0,.354.054.177.054.353-.137.177-.137.354.114.177.114.353-.014.177-.014.353-.048.177-.048.354.086.176.086.353-.023.177-.023.353,0,.176,0,.353-.1.176-.1.353.093.177.093.353-.064.176-.064.352-.026.176-.026.353-.014.176-.014.353.117.177.117.353-.069.177-.069.353.02.176.02.353.038.177.038.353.024.176.024.353-.111.177-.111.353.079.177.079.353-.079.177-.079.353-.007.177-.007.354-.02.177-.02.354.083.177.083.354-.046.177-.046.354.074.177.074.354-.114.177-.114.354.005.177.005.354.052.177.052.354-.028.176-.028.353,0,.177,0,.353.069.177.069.353.033.177.033.353-.09.177-.09.354.084.176.084.353-.079.176-.079.353.091.177.091.353-.113.177-.113.353.029.177.029.354.008.177.008.354.006.177.006.354-.018.177-.018.354.068.177.068.354-.048.177-.048.354-.02.177-.02.354.05.177.05.354-.091.177-.091.353.129.177.129.354-.125.176-.125.351-.008.176-.008.352.05.176.05.352.05.176.05.352.033.176.033.353-.03.176-.03.353-.043.177-.043.354-.061.177-.061.354.016.177.016.355.117.177.117.354-.089.177-.089.353.083.177.083.353-.056.177-.056.353,0,.176,0,.352-.014.176-.014.353.079.176.079.353,0,.176,0,.352-.071.176-.071.352-.049.176-.049.353,0,.176,0,.353.13.177.13.353-.091.177-.091.353.018.177.018.354.053.177.053.354-.087.177-.087.355.075.177.075.355-.074.177-.074.354.066.177.066.354-.008.177-.008.354-.063.177-.063.354.03.177.03.354.081.177.081.354-.11.177-.11.354-.012.177-.012.354.1.177.1.355,0,.178,0,.356v.355c0,.177-.039.177-.039.355s-.08.177-.08.354.027.177.027.355.112.177.112.355-.126.178-.126.355.127.178.127.356-.057.178-.057.355-.035.178-.035.355.09.178.09.355,0,.177,0,.353-.1.177-.1.353.055.177.055.354-.081.178-.081.355.119.178.119.356-.116.178-.116.355.069.178.069.355,0,.177,0,.355-.058.178-.058.357,0,.178,0,.356.1.178.1.356-.124.178-.124.357.114.178.114.357-.1.178-.1.356.032.178.032.356-.044.179-.044.358.116.179.116.358-.154.2-.107.373C526.164,691.432,526.329,691.484,526.2,691.612Z" transform="translate(-453.786 -620.514)"/></svg>