<svg xmlns="http://www.w3.org/2000/svg" width="15.564" height="8.757" viewBox="0 0 15.564 8.757"><defs><style>.a{fill:#22254b;}</style></defs><g transform="translate(15.564 -32.122) rotate(90)"><g transform="translate(32.154 6.833)"><g transform="translate(0)"><path class="a" d="M279.451,232.512l-5.775,5.776-.819.819a1.074,1.074,0,0,0,1.519,1.519l5.775-5.776.819-.819a1.1,1.1,0,0,0,0-1.519,1.081,1.081,0,0,0-1.519,0Z" transform="translate(-272.55 -232.2)"/></g></g><g transform="translate(32.122 0)"><g transform="translate(0 0)"><path class="a" d="M280.169,68.151l-5.775-5.776-.819-.819a1.074,1.074,0,0,0-1.519,1.519l5.775,5.776.819.819a1.1,1.1,0,0,0,1.519,0,1.081,1.081,0,0,0,0-1.519Z" transform="translate(-271.75 -61.25)"/></g></g></g></svg>